<svg width="120" height="120" viewBox="0 0 120 120" fill="none" xmlns="http://www.w3.org/2000/svg">
<rect width="120" height="120" rx="8" fill="#FF3131"/>
<path d="M19.208 82.576C17.8853 82.576 16.776 82.2773 15.88 81.68C14.984 81.04 14.4293 80.1867 14.216 79.12C14.0027 78.0107 14.1947 76.7733 14.792 75.408L30.728 41.104C31.496 39.44 32.4347 38.224 33.544 37.456C34.696 36.688 35.9973 36.304 37.448 36.304C38.8987 36.304 40.1573 36.688 41.224 37.456C42.3333 38.224 43.2933 39.44 44.104 41.104L60.04 75.408C60.7227 76.7733 60.9573 78.0107 60.744 79.12C60.5733 80.2293 60.04 81.0827 59.144 81.68C58.2907 82.2773 57.224 82.576 55.944 82.576C54.2373 82.576 52.9147 82.192 51.976 81.424C51.08 80.656 50.2693 79.4187 49.544 77.712L46.088 69.584L50.568 72.848H24.2L28.744 69.584L25.288 77.712C24.52 79.4187 23.7307 80.656 22.92 81.424C22.1093 82.192 20.872 82.576 19.208 82.576ZM37.32 49.168L29.896 66.896L28.104 63.824H46.728L44.936 66.896L37.448 49.168H37.32ZM71.7965 82.576C69.9192 82.576 68.4685 82.064 67.4445 81.04C66.4205 79.9733 65.9085 78.5013 65.9085 76.624V42.832C65.9085 40.912 66.4205 39.44 67.4445 38.416C68.5112 37.392 69.9832 36.88 71.8605 36.88H87.6045C92.7245 36.88 96.6712 38.1387 99.4445 40.656C102.261 43.1307 103.669 46.5867 103.669 51.024C103.669 53.8827 103.029 56.3787 101.749 58.512C100.511 60.6027 98.6978 62.224 96.3085 63.376C93.9618 64.4853 91.0605 65.04 87.6045 65.04L88.1165 63.888H91.1885C93.0232 63.888 94.6445 64.336 96.0525 65.232C97.4605 66.0853 98.6338 67.408 99.5725 69.2L102.773 74.96C103.455 76.1973 103.775 77.4133 103.733 78.608C103.69 79.76 103.221 80.72 102.325 81.488C101.471 82.2133 100.213 82.576 98.5485 82.576C96.8845 82.576 95.5192 82.2347 94.4525 81.552C93.4285 80.8693 92.5112 79.8027 91.7005 78.352L85.8765 67.664C85.3645 66.7253 84.7032 66.0853 83.8925 65.744C83.1245 65.36 82.2285 65.168 81.2045 65.168H77.6845V76.624C77.6845 78.5013 77.1938 79.9733 76.2125 81.04C75.2312 82.064 73.7592 82.576 71.7965 82.576ZM77.6845 56.848H85.4925C87.7538 56.848 89.4818 56.4 90.6765 55.504C91.8712 54.608 92.4685 53.2213 92.4685 51.344C92.4685 49.552 91.8712 48.208 90.6765 47.312C89.4818 46.3733 87.7538 45.904 85.4925 45.904H77.6845V56.848Z" fill="#FFCBC3"/>
</svg>
